<?xml version="1.0" encoding="UTF-8"?>
<svg xmlns="http://www.w3.org/2000/svg" viewBox="0 0 1024 1024" width="1024" height="1024">
  <defs>
    <linearGradient id="bgGrad" x1="0" y1="0" x2="1" y2="1">
      <stop offset="0%"   stop-color="#0a0a0a"/>
      <stop offset="100%" stop-color="#000000"/>
    </linearGradient>
  </defs>

  <rect x="0" y="0" width="1024" height="1024" rx="277" ry="277" fill="url(#bgGrad)"/>
  <rect x="1" y="1" width="1022" height="1022" rx="276" ry="276" fill="none" stroke="#1a1a1a" stroke-width="2"/>

  <g transform="translate(256, 256) scale(17.067)">
    <path d="M 15 4 C 18 9, 22 13, 22 18 C 22 23, 18 26, 15 26 C 12 26, 8 23, 8 18 C 8 14, 12 11, 14 7 Z" fill="#c2421e"/>
    <path d="M 15 9 C 18 13, 20 16, 20 20 C 20 24, 17 25, 15 25 C 13 25, 10 24, 10 20 C 10 16, 12 13, 14 10 Z" fill="#ff8a3d"/>
    <path d="M 15 14 C 17 16, 18 19, 17 22 C 16 24, 14 24, 13 22 C 12 19, 13 17, 15 14 Z" fill="#ffe0a8" opacity="0.92"/>
  </g>
</svg>
