<svg xmlns="http://www.w3.org/2000/svg" viewBox="0 0 100 100">
  <defs>
    <linearGradient id="ef" x1="50" y1="10" x2="50" y2="58.1" gradientUnits="userSpaceOnUse">
      <stop offset="0%" stop-color="#ff4a21"/>
      <stop offset="55%" stop-color="#ff8434"/>
      <stop offset="100%" stop-color="#ffbe5f"/>
    </linearGradient>
    <linearGradient id="ec" x1="50" y1="52.8" x2="50" y2="86.2" gradientUnits="userSpaceOnUse">
      <stop offset="0%" stop-color="#f56f2f"/>
      <stop offset="45%" stop-color="#c8431c"/>
      <stop offset="100%" stop-color="#99290f"/>
    </linearGradient>
    <linearGradient id="ek" x1="50" y1="32.5" x2="50" y2="55.6" gradientUnits="userSpaceOnUse">
      <stop offset="0%" stop-color="#fff1c6"/>
      <stop offset="100%" stop-color="#ffd27f"/>
    </linearGradient>
    <radialGradient id="eg" cx="50%" cy="34%" r="75%">
      <stop offset="0%" stop-color="rgba(255,120,40,0.18)"/>
      <stop offset="62%" stop-color="rgba(255,120,40,0)"/>
    </radialGradient>
  </defs>

  <!-- Dark tile with a warm glow behind the mark -->
  <rect width="100" height="100" rx="24" fill="#101010"/>
  <rect width="100" height="100" rx="24" fill="url(#eg)"/>
  <rect x="0.5" y="0.5" width="99" height="99" rx="23.5"
        fill="none" stroke="rgba(255,255,255,0.09)" stroke-width="1"/>

  <!-- Candle body -->
  <rect x="35.3" y="52.8" width="29.4" height="33.4" rx="9.7" fill="url(#ec)"/>

  <!-- Flame — base sinks into the molten top of the body -->
  <path d="M 53.1 10
           C 53.1 19.4 67.2 28.8 67.2 40
           C 67.2 50.6 59.4 58.1 50 58.1
           C 40.6 58.1 32.8 50.6 32.8 40
           C 32.8 33.8 36.3 29.1 40 24.7
           C 44.1 19.7 47.8 15.6 53.1 10 Z"
        fill="url(#ef)"/>

  <!-- Inner core -->
  <path d="M 50 32.5
           C 55 38.1 58.1 42.5 58.1 46.9
           C 58.1 52.2 54.7 55.6 50 55.6
           C 45.3 55.6 41.9 52.2 41.9 46.9
           C 41.9 42.5 45 38.1 50 32.5 Z"
        fill="url(#ek)"/>
</svg>
