<svg xmlns="http://www.w3.org/2000/svg" viewBox="0 0 100 100">
  <rect width="100" height="100" rx="22" fill="#0a0a0a"/>
  <rect width="100" height="100" rx="22" fill="none" stroke="#ff6a2c" stroke-width="1" opacity="0.18"/>
  <path d="M 50 14 C 60 30, 73 43, 73 60 C 73 77, 60 87, 50 87 C 40 87, 27 77, 27 60 C 27 47, 40 37, 47 24 Z" fill="#c2421e"/>
  <path d="M 50 30 C 60 43, 67 53, 67 65 C 67 77, 59 84, 50 84 C 41 84, 33 77, 33 65 C 33 55, 41 47, 47 35 Z" fill="#ff8a3d"/>
  <path d="M 50 47 C 56 54, 60 62, 57 70 C 55 75, 45 75, 43 70 C 40 62, 44 55, 50 47 Z" fill="#ffe0a8" opacity="0.92"/>
</svg>
